<?xml version="1.0" encoding="utf-8"?>
<!-- Uploaded to: SVG Repo, www.svgrepo.com, Generator: SVG Repo Mixer Tools -->
<svg fill="#000000" height="800px" width="800px" version="1.2" baseProfile="tiny" id="Layer_1" xmlns="http://www.w3.org/2000/svg" xmlns:xlink="http://www.w3.org/1999/xlink"
	  viewBox="0 0 271 256" xml:space="preserve">
<path d="M230,216V91.2H42.1V216h82.8v21.6H96.5V254h79v-16.4h-28.3V216L230,216L230,216z M54.8,103.9h161.8v98.7H54.8V103.9z
	 M215.4,37.5c-1-1.1-1.9-2.1-3-3c-3.7-3.5-7.7-6.6-11.9-9.5c-10.9-7.9-22.9-14.4-35.8-18.7c-8.4-2.8-17.3-4.4-26.3-4.8h-5.3
	c-14,0.4-27.5,4.4-40.1,10.4c-11.6,5.7-22.5,13-32.3,21.6c-1.2,1.2-2.6,2.4-3.9,3.7c-0.6,0.7-1.2,1.5-1.4,2.5v1.7
	c0.1,1.2,1,2.1,1.8,2.9c1.9,1.9,3.9,3.6,5.8,5.3c5.1,4.3,10.4,8.2,16,11.6c0.4,0.3,1,0.6,1.4,0.8c9.7,5.9,20,10.8,31,13.8
	c7.1,1.9,14.4,3.2,21.7,3.5h5.1c13.7-0.4,27.1-4.3,39.4-10.1c12.6-5.9,24.2-13.7,34.4-22.9c1.2-1.1,2.4-2.1,3.3-3.5
	c0.3-0.4,0.6-1,0.7-1.7v-1.7C216.1,38.8,215.9,38.1,215.4,37.5z M71.7,44.7c-1.8-1.4-3.6-2.9-5.4-4.4l32.1,0c0,2.3,0.2,4.6,0.6,6.9
	c1.2,6.6,4.3,13,8.7,18C94.6,60.5,82.6,53.3,71.7,44.7z M187.7,53.6c-7.5,4.7-15.3,8.7-23.8,11.6c4.7-5.4,7.9-11.9,9-18.9
	c0.3-2,0.5-4,0.5-6.1l32.2,0C200,45.3,193.9,49.7,187.7,53.6z"/>
</svg>