<?xml version="1.0" encoding="utf-8"?>
<!-- Uploaded to: SVG Repo, www.svgrepo.com, Generator: SVG Repo Mixer Tools -->
<svg width="800px" height="800px" viewBox="0 0 1024 1024" class="icon"  version="1.1" xmlns="http://www.w3.org/2000/svg"><path d="M547.84 324.315429v425.910857c0 17.334857-16.091429 31.305143-35.84 31.305143s-35.84-13.970286-35.84-31.305143V315.611429l-43.008 48.201142-13.677714 13.385143a37.302857 37.302857 0 0 1-51.931429 0.438857 35.328 35.328 0 0 1-0.512-50.395428l114.322286-120.466286a36.571429 36.571429 0 0 1 52.077714-0.950857l122.514286 119.515429c13.677714 14.482286 13.165714 37.302857-1.243429 51.053714a40.228571 40.228571 0 0 1-54.857143 0.585143l-14.555428-13.165715-37.449143-39.497142z m184.32-18.212572h85.430857c56.32 0 101.888-49.078857 101.888-109.714286 0-60.562286-45.641143-109.714286-101.888-109.714285H206.336c-56.246857 0-101.814857 49.152-101.814857 109.714285 0 60.635429 45.568 109.714286 101.814857 109.714286H294.765714c8.045714 0 14.628571 6.582857 14.628572 14.628572v43.885714a14.628571 14.628571 0 0 1-14.628572 14.628571H206.336C112.64 379.245714 36.571429 297.325714 36.571429 196.388571s76.068571-182.857143 169.764571-182.857142h611.254857c93.769143 0 169.764571 81.92 169.764572 182.857142s-75.995429 182.857143-169.691429 182.857143h-85.577143a14.628571 14.628571 0 0 1-14.628571-14.628571v-43.885714c0-8.045714 6.582857-14.628571 14.628571-14.628572z m0 365.714286a14.628571 14.628571 0 0 1-14.628571-14.628572v-43.885714c0-8.045714 6.582857-14.628571 14.628571-14.628571h85.504c93.769143 0 169.764571 81.92 169.764571 182.857143s-76.068571 182.857143-169.764571 182.857142H206.409143c-93.769143 0-169.764571-81.92-169.764572-182.857142s75.995429-182.857143 169.691429-182.857143H294.765714c8.045714 0 14.628571 6.582857 14.628572 14.628571v43.885714a14.628571 14.628571 0 0 1-14.628572 14.628572H206.409143c-56.32 0-101.888 49.152-101.888 109.714286 0 60.635429 45.641143 109.714286 101.888 109.714285h611.254857c56.246857 0 101.814857-49.078857 101.814857-109.714285 0-60.562286-45.568-109.714286-101.814857-109.714286h-85.577143zM138.459429 525.677714c-18.724571 0-33.938286-16.310857-33.938286-36.571428 0-20.187429 15.213714-36.571429 33.938286-36.571429H293.302857c8.045714 0 14.628571 6.582857 14.628572 14.628572v43.885714a14.628571 14.628571 0 0 1-14.628572 14.628571H138.459429z m589.750857-14.774857v-43.885714c0-8.045714 6.582857-14.628571 14.628571-14.628572h168.521143a36.571429 36.571429 0 0 1 0 73.142858h-168.521143a14.628571 14.628571 0 0 1-14.628571-14.628572z" fill="#000000" /></svg>